<?xml version="1.0" encoding="utf-8"?>
<!-- Generator: Adobe Illustrator 25.0.0, SVG Export Plug-In . SVG Version: 6.00 Build 0)  -->
<svg version="1.1" id="Layer_1" xmlns="http://www.w3.org/2000/svg" xmlns:xlink="http://www.w3.org/1999/xlink" x="0px" y="0px"
	 viewBox="0 0 300 100" style="enable-background:new 0 0 300 100;" xml:space="preserve">
<style type="text/css">
	.st0{fill:#0155A6;}
	.st1{fill:#F3D211;}
</style>
<rect x="-2" y="-5" class="st0" width="312" height="110"/>
<ellipse class="st1" cx="149.5" cy="50" rx="147.5" ry="46"/>
<g>
	<g>
		<path class="st0" d="M37.23,60.25h-5.82c0.01-1,0.03-2.44,0.04-4.32s0.03-4.45,0.03-7.68c0-1.36-0.01-3.08-0.02-5.16
			s-0.03-4.2-0.05-6.37h5.82c-0.01,1.61-0.03,3.45-0.04,5.55s-0.03,3.95-0.03,5.58c0,3.32,0.01,5.88,0.03,7.69
			S37.22,58.91,37.23,60.25z"/>
		<path class="st0" d="M60.36,60.25h-5.4c0-0.36,0.01-1.26,0.03-2.68s0.03-2.55,0.03-3.38c0-0.59,0-1.42-0.01-2.49
			s-0.01-1.88-0.03-2.43c-0.02-1.08-0.21-1.86-0.55-2.35s-0.96-0.73-1.84-0.73c-0.59,0-1.27,0.15-2.07,0.45s-1.54,0.65-2.24,1.06
			c0,0.07,0,0.73-0.01,1.97s-0.01,2.29-0.01,3.13c0,1.27,0.01,2.78,0.04,4.55s0.04,2.74,0.04,2.9h-5.4c0-0.27,0.01-1.09,0.03-2.46
			s0.03-3.37,0.03-5.99c0-1.51-0.01-3.05-0.02-4.61s-0.02-3.19-0.04-4.88h5.29l-0.02,1.67l0.02,0.04c1.11-0.62,2.29-1.14,3.53-1.55
			s2.34-0.62,3.29-0.62c1.62,0,2.9,0.5,3.86,1.5s1.43,2.35,1.43,4.05c0,1.42-0.01,2.6-0.03,3.54s-0.03,1.74-0.03,2.38
			c0,1.09,0.01,2.43,0.04,4.02S60.36,59.9,60.36,60.25z"/>
		<path class="st0" d="M77.8,54.83c0,0.96-0.27,1.8-0.8,2.51s-1.21,1.29-2.03,1.74c-0.86,0.47-1.91,0.81-3.16,1.04
			s-2.52,0.33-3.8,0.33c-0.86,0.01-1.63,0-2.31-0.04s-1.15-0.05-1.4-0.05l-0.42-3.87c0.27,0.01,0.71,0.03,1.34,0.06
			s1.3,0.04,2.04,0.04c0.39,0,0.83-0.02,1.32-0.06s0.96-0.13,1.39-0.25c0.64-0.18,1.07-0.4,1.27-0.66s0.31-0.57,0.31-0.92
			c0-0.33-0.11-0.6-0.34-0.83s-0.59-0.47-1.08-0.74c-0.4-0.23-0.91-0.49-1.55-0.77s-1.2-0.57-1.71-0.88
			c-0.81-0.49-1.41-1.08-1.8-1.75s-0.59-1.42-0.59-2.24c0-0.89,0.25-1.7,0.76-2.42s1.27-1.33,2.3-1.84c0.84-0.41,1.84-0.7,2.98-0.86
			s2.22-0.26,3.23-0.28c0.84-0.01,1.55-0.01,2.11,0.01s0.94,0.03,1.12,0.03l0.46,3.88c-0.18,0-0.51-0.01-0.99-0.04
			s-1.09-0.04-1.82-0.04c-0.5,0-0.98,0.03-1.42,0.1s-0.84,0.16-1.2,0.27c-0.45,0.15-0.78,0.35-0.99,0.59s-0.33,0.5-0.33,0.78
			c0,0.34,0.14,0.63,0.41,0.88s0.64,0.48,1.08,0.7c0.43,0.23,0.98,0.5,1.63,0.81s1.16,0.57,1.54,0.79c0.81,0.49,1.42,1.06,1.84,1.7
			S77.8,53.96,77.8,54.83z"/>
		<path class="st0" d="M93.67,56.52l-0.51,3.85c-0.16,0.01-0.44,0.02-0.83,0.04s-0.89,0.02-1.51,0.02c-2.85,0-5-0.54-6.44-1.63
			s-2.17-2.7-2.17-4.84c0-1.37,0.01-2.64,0.02-3.81s0.02-2.5,0.02-4.02h-2.92V42.3h3.06v-4.69h5.19v4.69h6.03v3.83h-6.03
			c0,0.26-0.01,0.77-0.02,1.54s-0.02,1.4-0.02,1.89c0,0.39,0,0.86,0.01,1.42s0.01,1.14,0.01,1.75c0,1.28,0.36,2.23,1.07,2.86
			s2.03,0.94,3.96,0.94c0.22,0,0.44,0,0.65,0S93.59,56.52,93.67,56.52z"/>
		<path class="st0" d="M111.86,50.91c0,2.87,0,5.08-0.01,6.64c-0.01,1.56-0.01,2.46-0.01,2.7c-0.19,0.02-0.95,0.08-2.29,0.17
			s-2.75,0.13-4.25,0.13c-0.98,0-2.11-0.08-3.37-0.25s-2.31-0.43-3.16-0.79c-1.08-0.47-1.92-1.09-2.53-1.85s-0.91-1.67-0.91-2.7
			c0-1.12,0.33-2.09,0.98-2.88s1.67-1.45,3.05-1.97c0.93-0.35,2.07-0.63,3.43-0.83s2.59-0.34,3.69-0.42
			c-0.04-0.63-0.2-1.15-0.5-1.56s-0.81-0.72-1.52-0.94c-0.47-0.15-0.99-0.26-1.56-0.33s-1.25-0.1-2.03-0.1
			c-0.71,0-1.32,0.01-1.83,0.04s-1.05,0.05-1.63,0.07l0.47-3.92c0.23-0.01,0.61-0.03,1.12-0.04s1.24-0.03,2.18-0.03
			c1.98,0,3.63,0.17,4.95,0.51c1.32,0.34,2.43,0.9,3.33,1.69c0.83,0.71,1.44,1.58,1.82,2.61C111.67,47.88,111.86,49.23,111.86,50.91
			z M106.77,54.15c0-0.38,0-0.81,0-1.31s-0.01-1.02-0.02-1.57c-0.34,0.01-0.94,0.08-1.81,0.2s-1.64,0.33-2.32,0.62
			c-0.47,0.19-0.9,0.48-1.29,0.88s-0.59,0.89-0.59,1.48c0,0.66,0.17,1.18,0.52,1.56s0.79,0.69,1.34,0.9
			c0.4,0.14,0.85,0.25,1.35,0.32s1.05,0.11,1.63,0.11c0.15,0,0.33,0,0.53-0.01s0.41-0.01,0.63-0.01c0-0.15,0-0.51,0.01-1.07
			S106.77,54.98,106.77,54.15z"/>
		<path class="st0" d="M117.23,60.25V35.02h14.33v3.78h-9.83v7.7h8.53v3.78h-8.53v9.97H117.23z"/>
		<path class="st0" d="M135.41,40.2h4.46v13c0,2.63,1.19,3.92,3.42,3.92c2.52,0,3.85-1.73,4.07-3.31V40.2h4.43v20.05h-3.67
			l-0.68-1.94h-0.14c-0.94,1.19-2.63,2.34-5.44,2.34c-4.25,0-6.41-2.23-6.44-6.91V40.2z"/>
		<path class="st0" d="M168.56,44.41c-0.72-0.14-1.55-0.22-2.27-0.22c-1.8,0-3.71,0.68-4.79,1.98v14.07h-4.39V40.2h3.42l0.94,2.66
			h0.14c0.83-1.76,2.63-3.06,5.15-3.06c0.68,0,1.37,0.07,1.8,0.18V44.41z"/>
		<path class="st0" d="M187.68,60.25h-4.46V47.36c0-2.45-1.15-3.82-3.31-3.82c-1.91,0-3.42,1.19-4.07,2.81v13.89h-4.43V40.2h3.42
			l0.9,1.98h0.14c0.97-1.19,3.02-2.45,5.51-2.45c3.96,0,6.26,2.16,6.3,6.66V60.25z"/>
		<path class="st0" d="M195.42,31.96c1.62,0,2.77,1.19,2.77,2.81c0,1.48-1.15,2.63-2.77,2.63c-1.48,0-2.66-1.15-2.66-2.63
			C192.75,33.14,193.94,31.96,195.42,31.96z M193.33,40.2h4.43v20.05h-4.43V40.2z"/>
		<path class="st0" d="M203.95,54.24V43.62h-2.74v-2.77l2.74-0.9l1.48-4.9h2.88v5.15h5.22v3.42h-5.22v10.62
			c0,1.73,0.94,2.52,2.41,2.52c1.15,0,2.16-0.32,2.84-0.83l1.19,3.38c-0.72,0.47-2.2,1.12-5.18,1.12
			C206.18,60.43,203.95,58.7,203.95,54.24z"/>
		<path class="st0" d="M217.52,40.2h4.46v13c0,2.63,1.19,3.92,3.42,3.92c2.52,0,3.85-1.73,4.07-3.31V40.2h4.43v20.05h-3.67
			l-0.68-1.94h-0.14c-0.94,1.19-2.63,2.34-5.44,2.34c-4.25,0-6.41-2.23-6.44-6.91V40.2z"/>
		<path class="st0" d="M250.68,44.41c-0.72-0.14-1.55-0.22-2.27-0.22c-1.8,0-3.71,0.68-4.79,1.98v14.07h-4.39V40.2h3.42l0.94,2.66
			h0.14c0.83-1.76,2.63-3.06,5.15-3.06c0.68,0,1.37,0.07,1.8,0.18V44.41z"/>
		<path class="st0" d="M268.67,58.52c-1.48,1.15-3.49,2.09-6.95,2.09c-6.12,0-9.29-3.35-9.29-10.44c0-6.8,3.78-10.33,9.07-10.33
			c4.97,0,7.78,3.17,7.78,8.03c0,1.01-0.04,2.09-0.22,3.53H256.8c0.14,3.82,1.8,5.62,5.44,5.62c2.12,0,3.71-0.94,4.5-1.69
			L268.67,58.52z M256.87,48.3h8.21v-0.79c0-2.74-1.19-4.21-3.74-4.21C258.85,43.29,257.01,45.02,256.87,48.3z"/>
	</g>
</g>
</svg>
